<mxfile host="www.draw.io" modified="2020-01-21T08:12:50.208Z" agent="Mozilla/5.0 (Macintosh; Intel Mac OS X 10_14_6) AppleWebKit/537.36 (KHTML, like Gecko) Chrome/79.0.3945.117 Safari/537.36" etag="JB_RkWZlfAJForZ7H1jP" version="12.5.5" type="github">
  <diagram id="C5RBs43oDa-KdzZeNtuy" name="Page-1">
    <mxGraphModel dx="1476" dy="749" grid="1" gridSize="10" guides="1" tooltips="1" connect="1" arrows="1" fold="1" page="1" pageScale="1" pageWidth="827" pageHeight="1169" math="0" shadow="0">
      <root>
        <mxCell id="WIyWlLk6GJQsqaUBKTNV-0"/>
        <mxCell id="WIyWlLk6GJQsqaUBKTNV-1" parent="WIyWlLk6GJQsqaUBKTNV-0"/>
        <mxCell id="PRDpkNrM7ITENll2jEc8-11" value="" style="group" vertex="1" connectable="0" parent="WIyWlLk6GJQsqaUBKTNV-1">
          <mxGeometry x="140" y="90" width="160" height="190" as="geometry"/>
        </mxCell>
        <mxCell id="PRDpkNrM7ITENll2jEc8-1" value="" style="rounded=0;whiteSpace=wrap;html=1;strokeWidth=3;" vertex="1" parent="PRDpkNrM7ITENll2jEc8-11">
          <mxGeometry width="160" height="190" as="geometry"/>
        </mxCell>
        <mxCell id="PRDpkNrM7ITENll2jEc8-4" value="&lt;font style=&quot;font-size: 20px&quot;&gt;Listings&lt;/font&gt;" style="text;html=1;align=center;verticalAlign=middle;resizable=0;points=[];autosize=1;" vertex="1" parent="PRDpkNrM7ITENll2jEc8-11">
          <mxGeometry x="40" y="20" width="80" height="20" as="geometry"/>
        </mxCell>
        <mxCell id="PRDpkNrM7ITENll2jEc8-5" value="&lt;font style=&quot;font-size: 20px&quot;&gt;API&lt;/font&gt;" style="rounded=0;whiteSpace=wrap;html=1;strokeWidth=2;" vertex="1" parent="PRDpkNrM7ITENll2jEc8-11">
          <mxGeometry x="17.5" y="60" width="125" height="40" as="geometry"/>
        </mxCell>
        <mxCell id="PRDpkNrM7ITENll2jEc8-10" value="" style="group" vertex="1" connectable="0" parent="PRDpkNrM7ITENll2jEc8-11">
          <mxGeometry x="41.5" y="120" width="77" height="50" as="geometry"/>
        </mxCell>
        <mxCell id="PRDpkNrM7ITENll2jEc8-6" value="" style="strokeWidth=2;html=1;shape=mxgraph.flowchart.database;whiteSpace=wrap;" vertex="1" parent="PRDpkNrM7ITENll2jEc8-10">
          <mxGeometry width="77" height="50" as="geometry"/>
        </mxCell>
        <mxCell id="PRDpkNrM7ITENll2jEc8-7" value="&lt;font style=&quot;font-size: 20px&quot;&gt;DB&lt;/font&gt;" style="text;html=1;align=center;verticalAlign=middle;resizable=0;points=[];autosize=1;" vertex="1" parent="PRDpkNrM7ITENll2jEc8-10">
          <mxGeometry x="18.5" y="22" width="40" height="20" as="geometry"/>
        </mxCell>
        <mxCell id="PRDpkNrM7ITENll2jEc8-12" value="" style="group" vertex="1" connectable="0" parent="WIyWlLk6GJQsqaUBKTNV-1">
          <mxGeometry x="400" y="90" width="160" height="190" as="geometry"/>
        </mxCell>
        <mxCell id="PRDpkNrM7ITENll2jEc8-13" value="" style="rounded=0;whiteSpace=wrap;html=1;strokeWidth=3;" vertex="1" parent="PRDpkNrM7ITENll2jEc8-12">
          <mxGeometry width="160" height="190" as="geometry"/>
        </mxCell>
        <mxCell id="PRDpkNrM7ITENll2jEc8-14" value="&lt;font style=&quot;font-size: 20px&quot;&gt;Users&lt;/font&gt;" style="text;html=1;align=center;verticalAlign=middle;resizable=0;points=[];autosize=1;" vertex="1" parent="PRDpkNrM7ITENll2jEc8-12">
          <mxGeometry x="45" y="20" width="70" height="20" as="geometry"/>
        </mxCell>
        <mxCell id="PRDpkNrM7ITENll2jEc8-15" value="&lt;font style=&quot;font-size: 20px&quot;&gt;API&lt;/font&gt;" style="rounded=0;whiteSpace=wrap;html=1;strokeWidth=2;" vertex="1" parent="PRDpkNrM7ITENll2jEc8-12">
          <mxGeometry x="17.5" y="60" width="125" height="40" as="geometry"/>
        </mxCell>
        <mxCell id="PRDpkNrM7ITENll2jEc8-16" value="" style="group" vertex="1" connectable="0" parent="PRDpkNrM7ITENll2jEc8-12">
          <mxGeometry x="41.5" y="120" width="77" height="50" as="geometry"/>
        </mxCell>
        <mxCell id="PRDpkNrM7ITENll2jEc8-17" value="" style="strokeWidth=2;html=1;shape=mxgraph.flowchart.database;whiteSpace=wrap;" vertex="1" parent="PRDpkNrM7ITENll2jEc8-16">
          <mxGeometry width="77" height="50" as="geometry"/>
        </mxCell>
        <mxCell id="PRDpkNrM7ITENll2jEc8-18" value="&lt;font style=&quot;font-size: 20px&quot;&gt;DB&lt;/font&gt;" style="text;html=1;align=center;verticalAlign=middle;resizable=0;points=[];autosize=1;" vertex="1" parent="PRDpkNrM7ITENll2jEc8-16">
          <mxGeometry x="18.5" y="22" width="40" height="20" as="geometry"/>
        </mxCell>
        <mxCell id="PRDpkNrM7ITENll2jEc8-24" style="edgeStyle=orthogonalEdgeStyle;rounded=0;orthogonalLoop=1;jettySize=auto;html=1;exitX=0.5;exitY=1;exitDx=0;exitDy=0;startArrow=classic;startFill=1;strokeWidth=2;" edge="1" parent="WIyWlLk6GJQsqaUBKTNV-1" source="PRDpkNrM7ITENll2jEc8-19" target="PRDpkNrM7ITENll2jEc8-23">
          <mxGeometry relative="1" as="geometry"/>
        </mxCell>
        <mxCell id="PRDpkNrM7ITENll2jEc8-19" value="&lt;font style=&quot;font-size: 20px&quot;&gt;GraphQL&lt;br&gt;API Gateway&lt;br&gt;&lt;/font&gt;" style="rounded=0;whiteSpace=wrap;html=1;strokeWidth=2;" vertex="1" parent="WIyWlLk6GJQsqaUBKTNV-1">
          <mxGeometry x="250" y="389" width="185" height="80" as="geometry"/>
        </mxCell>
        <mxCell id="PRDpkNrM7ITENll2jEc8-20" style="edgeStyle=orthogonalEdgeStyle;rounded=0;orthogonalLoop=1;jettySize=auto;html=1;exitX=0.5;exitY=1;exitDx=0;exitDy=0;entryX=0.5;entryY=0;entryDx=0;entryDy=0;strokeWidth=2;startArrow=classic;startFill=1;" edge="1" parent="WIyWlLk6GJQsqaUBKTNV-1" source="PRDpkNrM7ITENll2jEc8-1" target="PRDpkNrM7ITENll2jEc8-19">
          <mxGeometry relative="1" as="geometry"/>
        </mxCell>
        <mxCell id="PRDpkNrM7ITENll2jEc8-22" style="edgeStyle=orthogonalEdgeStyle;rounded=0;orthogonalLoop=1;jettySize=auto;html=1;exitX=0.5;exitY=1;exitDx=0;exitDy=0;startArrow=classic;startFill=1;strokeWidth=2;" edge="1" parent="WIyWlLk6GJQsqaUBKTNV-1" source="PRDpkNrM7ITENll2jEc8-13" target="PRDpkNrM7ITENll2jEc8-19">
          <mxGeometry relative="1" as="geometry"/>
        </mxCell>
        <mxCell id="PRDpkNrM7ITENll2jEc8-23" value="&lt;font style=&quot;font-size: 20px&quot;&gt;React App&lt;br&gt;&lt;/font&gt;" style="rounded=0;whiteSpace=wrap;html=1;strokeWidth=2;" vertex="1" parent="WIyWlLk6GJQsqaUBKTNV-1">
          <mxGeometry x="250" y="543.86" width="185" height="80" as="geometry"/>
        </mxCell>
      </root>
    </mxGraphModel>
  </diagram>
</mxfile>
